<svg xmlns="http://www.w3.org/2000/svg" viewBox="0 0 24 24" width="24" height="24" fill="none" stroke="#4f6ef7" stroke-width="2" stroke-linecap="round" stroke-linejoin="round">
  <path d="M19.3 12.4 C16.7 9.2 15.9 8.2 16.0 7.9 A16.3 16.3 0 0 0 17.1 6.3 C17.3 6.0 17.7 5.0 17.0 4.3 C16.4 3.7 15.7 3.7 15.1 4.3 S14.3 5.0 13.8 5.4 L13.2 4.3 C13.0 3.8 12.5 3.0 11.9 2.7 S10.5 3.0 10.5 4.3 A10.0 10.0 0 0 1 10.2 6.8 C10.1 7.1 9.9 7.6 5.3 17.1 L4.0 19.7 L9.9 19.7 C10.5 18.7 10.3 18.7 11.2 16.9 L11.8 15.4 L13.0 15.9 C14.4 16.5 15.7 17.0 17.1 17.6 A2.1 2.1 0 0 0 19.4 17.0 A3.5 3.5 0 0 0 19.3 12.4 Z"/>
</svg>
